<svg id="visual" viewBox="0 0 960 400" width="960" height="400" xmlns="http://www.w3.org/2000/svg" xmlns:xlink="http://www.w3.org/1999/xlink" version="1.1"><rect x="0" y="0" width="960" height="400" fill="#1a1a1a"></rect><defs><linearGradient id="grad1_0" x1="58.3%" y1="0%" x2="100%" y2="100%"><stop offset="2.0000000000000036%" stop-color="#ffffff" stop-opacity="1"></stop><stop offset="98%" stop-color="#ffffff" stop-opacity="1"></stop></linearGradient></defs><defs><linearGradient id="grad1_1" x1="58.3%" y1="0%" x2="100%" y2="100%"><stop offset="2.0000000000000036%" stop-color="#ffffff" stop-opacity="1"></stop><stop offset="98%" stop-color="#838383" stop-opacity="1"></stop></linearGradient></defs><defs><linearGradient id="grad1_2" x1="58.3%" y1="0%" x2="100%" y2="100%"><stop offset="2.0000000000000036%" stop-color="#1a1a1a" stop-opacity="1"></stop><stop offset="98%" stop-color="#838383" stop-opacity="1"></stop></linearGradient></defs><defs><linearGradient id="grad2_0" x1="0%" y1="0%" x2="41.7%" y2="100%"><stop offset="2.0000000000000036%" stop-color="#ffffff" stop-opacity="1"></stop><stop offset="98%" stop-color="#ffffff" stop-opacity="1"></stop></linearGradient></defs><defs><linearGradient id="grad2_1" x1="0%" y1="0%" x2="41.7%" y2="100%"><stop offset="2.0000000000000036%" stop-color="#838383" stop-opacity="1"></stop><stop offset="98%" stop-color="#ffffff" stop-opacity="1"></stop></linearGradient></defs><defs><linearGradient id="grad2_2" x1="0%" y1="0%" x2="41.7%" y2="100%"><stop offset="2.0000000000000036%" stop-color="#838383" stop-opacity="1"></stop><stop offset="98%" stop-color="#1a1a1a" stop-opacity="1"></stop></linearGradient></defs><g transform="translate(960, 0)"><path d="M0 400C-84.8 398.1 -169.7 396.3 -200 346.4C-230.3 296.6 -206.1 198.7 -230.4 133C-254.6 67.3 -327.3 33.6 -400 0L0 0Z" fill="#4b4b4b"></path><path d="M0 266.7C-56.6 265.4 -113.1 264.2 -133.3 230.9C-153.5 197.7 -137.4 132.5 -153.6 88.7C-169.7 44.8 -218.2 22.4 -266.7 0L0 0Z" fill="#bfbfbf"></path><path d="M0 133.3C-28.3 132.7 -56.6 132.1 -66.7 115.5C-76.8 98.9 -68.7 66.2 -76.8 44.3C-84.9 22.4 -109.1 11.2 -133.3 0L0 0Z" fill="#ffffff"></path></g><g transform="translate(0, 400)"><path d="M0 -400C42.2 -342.1 84.3 -284.2 149 -258.1C213.7 -232 300.8 -237.7 346.4 -200C392 -162.3 396 -81.1 400 0L0 0Z" fill="#4b4b4b"></path><path d="M0 -266.7C28.1 -228.1 56.2 -189.4 99.3 -172.1C142.4 -154.7 200.6 -158.5 230.9 -133.3C261.3 -108.2 264 -54.1 266.7 0L0 0Z" fill="#bfbfbf"></path><path d="M0 -133.3C14.1 -114 28.1 -94.7 49.7 -86C71.2 -77.3 100.3 -79.2 115.5 -66.7C130.7 -54.1 132 -27 133.3 0L0 0Z" fill="#ffffff"></path></g></svg>