<svg id="visual" viewBox="0 0 960 300" width="960" height="300" xmlns="http://www.w3.org/2000/svg" xmlns:xlink="http://www.w3.org/1999/xlink" version="1.1"><rect x="0" y="0" width="960" height="300" fill="#1a1a1a"></rect><path d="M0 115L17.8 115C35.7 115 71.3 115 106.8 116C142.3 117 177.7 119 213.2 125.2C248.7 131.3 284.3 141.7 320 140.5C355.7 139.3 391.3 126.7 426.8 118.8C462.3 111 497.7 108 533.2 114C568.7 120 604.3 135 640 135.3C675.7 135.7 711.3 121.3 746.8 115.2C782.3 109 817.7 111 853.2 115.8C888.7 120.7 924.3 128.3 942.2 132.2L960 136L960 0L942.2 0C924.3 0 888.7 0 853.2 0C817.7 0 782.3 0 746.8 0C711.3 0 675.7 0 640 0C604.3 0 568.7 0 533.2 0C497.7 0 462.3 0 426.8 0C391.3 0 355.7 0 320 0C284.3 0 248.7 0 213.2 0C177.7 0 142.3 0 106.8 0C71.3 0 35.7 0 17.8 0L0 0Z" fill="#ffffff"></path><path d="M0 81L17.8 86C35.7 91 71.3 101 106.8 100.8C142.3 100.7 177.7 90.3 213.2 84.7C248.7 79 284.3 78 320 84.3C355.7 90.7 391.3 104.3 426.8 106.5C462.3 108.7 497.7 99.3 533.2 94.2C568.7 89 604.3 88 640 88.3C675.7 88.7 711.3 90.3 746.8 89.5C782.3 88.7 817.7 85.3 853.2 85.8C888.7 86.3 924.3 90.7 942.2 92.8L960 95L960 0L942.2 0C924.3 0 888.7 0 853.2 0C817.7 0 782.3 0 746.8 0C711.3 0 675.7 0 640 0C604.3 0 568.7 0 533.2 0C497.7 0 462.3 0 426.8 0C391.3 0 355.7 0 320 0C284.3 0 248.7 0 213.2 0C177.7 0 142.3 0 106.8 0C71.3 0 35.7 0 17.8 0L0 0Z" fill="#d7d7d7"></path><path d="M0 81L17.8 80.2C35.7 79.3 71.3 77.7 106.8 75C142.3 72.3 177.7 68.7 213.2 69.3C248.7 70 284.3 75 320 73.5C355.7 72 391.3 64 426.8 58.7C462.3 53.3 497.7 50.7 533.2 53.8C568.7 57 604.3 66 640 69.3C675.7 72.7 711.3 70.3 746.8 65.3C782.3 60.3 817.7 52.7 853.2 53C888.7 53.3 924.3 61.7 942.2 65.8L960 70L960 0L942.2 0C924.3 0 888.7 0 853.2 0C817.7 0 782.3 0 746.8 0C711.3 0 675.7 0 640 0C604.3 0 568.7 0 533.2 0C497.7 0 462.3 0 426.8 0C391.3 0 355.7 0 320 0C284.3 0 248.7 0 213.2 0C177.7 0 142.3 0 106.8 0C71.3 0 35.7 0 17.8 0L0 0Z" fill="#b0b0b0"></path><path d="M0 22L17.8 25C35.7 28 71.3 34 106.8 36.8C142.3 39.7 177.7 39.3 213.2 39C248.7 38.7 284.3 38.3 320 40.5C355.7 42.7 391.3 47.3 426.8 45.7C462.3 44 497.7 36 533.2 32.2C568.7 28.3 604.3 28.7 640 32.3C675.7 36 711.3 43 746.8 46.8C782.3 50.7 817.7 51.3 853.2 48.8C888.7 46.3 924.3 40.7 942.2 37.8L960 35L960 0L942.2 0C924.3 0 888.7 0 853.2 0C817.7 0 782.3 0 746.8 0C711.3 0 675.7 0 640 0C604.3 0 568.7 0 533.2 0C497.7 0 462.3 0 426.8 0C391.3 0 355.7 0 320 0C284.3 0 248.7 0 213.2 0C177.7 0 142.3 0 106.8 0C71.3 0 35.7 0 17.8 0L0 0Z" fill="#8a8a8a"></path></svg>