<svg id="visual" viewBox="0 0 960 300" width="960" height="300" xmlns="http://www.w3.org/2000/svg" xmlns:xlink="http://www.w3.org/1999/xlink" version="1.1"><rect x="0" y="0" width="960" height="300" fill="#1a1a1a"></rect><path d="M0 183L17.8 183C35.7 183 71.3 183 106.8 182C142.3 181 177.7 179 213.2 172.8C248.7 166.7 284.3 156.3 320 157.5C355.7 158.7 391.3 171.3 426.8 179.2C462.3 187 497.7 190 533.2 184C568.7 178 604.3 163 640 162.7C675.7 162.3 711.3 176.7 746.8 182.8C782.3 189 817.7 187 853.2 182.2C888.7 177.3 924.3 169.7 942.2 165.8L960 162L960 301L942.2 301C924.3 301 888.7 301 853.2 301C817.7 301 782.3 301 746.8 301C711.3 301 675.7 301 640 301C604.3 301 568.7 301 533.2 301C497.7 301 462.3 301 426.8 301C391.3 301 355.7 301 320 301C284.3 301 248.7 301 213.2 301C177.7 301 142.3 301 106.8 301C71.3 301 35.7 301 17.8 301L0 301Z" fill="#ffffff"></path><path d="M0 217L17.8 212C35.7 207 71.3 197 106.8 197.2C142.3 197.3 177.7 207.7 213.2 213.3C248.7 219 284.3 220 320 213.7C355.7 207.3 391.3 193.7 426.8 191.5C462.3 189.3 497.7 198.7 533.2 203.8C568.7 209 604.3 210 640 209.7C675.7 209.3 711.3 207.7 746.8 208.5C782.3 209.3 817.7 212.7 853.2 212.2C888.7 211.7 924.3 207.3 942.2 205.2L960 203L960 301L942.2 301C924.3 301 888.7 301 853.2 301C817.7 301 782.3 301 746.8 301C711.3 301 675.7 301 640 301C604.3 301 568.7 301 533.2 301C497.7 301 462.3 301 426.8 301C391.3 301 355.7 301 320 301C284.3 301 248.7 301 213.2 301C177.7 301 142.3 301 106.8 301C71.3 301 35.7 301 17.8 301L0 301Z" fill="#d7d7d7"></path><path d="M0 217L17.8 217.8C35.7 218.7 71.3 220.3 106.8 223C142.3 225.7 177.7 229.3 213.2 228.7C248.7 228 284.3 223 320 224.5C355.7 226 391.3 234 426.8 239.3C462.3 244.7 497.7 247.3 533.2 244.2C568.7 241 604.3 232 640 228.7C675.7 225.3 711.3 227.7 746.8 232.7C782.3 237.7 817.7 245.3 853.2 245C888.7 244.7 924.3 236.3 942.2 232.2L960 228L960 301L942.2 301C924.3 301 888.7 301 853.2 301C817.7 301 782.3 301 746.8 301C711.3 301 675.7 301 640 301C604.3 301 568.7 301 533.2 301C497.7 301 462.3 301 426.8 301C391.3 301 355.7 301 320 301C284.3 301 248.7 301 213.2 301C177.7 301 142.3 301 106.8 301C71.3 301 35.7 301 17.8 301L0 301Z" fill="#b0b0b0"></path><path d="M0 276L17.8 273C35.7 270 71.3 264 106.8 261.2C142.3 258.3 177.7 258.7 213.2 259C248.7 259.3 284.3 259.7 320 257.5C355.7 255.3 391.3 250.7 426.8 252.3C462.3 254 497.7 262 533.2 265.8C568.7 269.7 604.3 269.3 640 265.7C675.7 262 711.3 255 746.8 251.2C782.3 247.3 817.7 246.7 853.2 249.2C888.7 251.7 924.3 257.3 942.2 260.2L960 263L960 301L942.2 301C924.3 301 888.7 301 853.2 301C817.7 301 782.3 301 746.8 301C711.3 301 675.7 301 640 301C604.3 301 568.7 301 533.2 301C497.7 301 462.3 301 426.8 301C391.3 301 355.7 301 320 301C284.3 301 248.7 301 213.2 301C177.7 301 142.3 301 106.8 301C71.3 301 35.7 301 17.8 301L0 301Z" fill="#8a8a8a"></path></svg>